<svg id="logo" xmlns="http://www.w3.org/2000/svg" viewBox="0 0 164.18 50.08"><defs><style>.cls-1{fill:currentColor;stroke-width:0px;}</style></defs><path class="cls-1" d="M0,44.79c2.23-.88,4.48-1.74,6.7-2.66,6.23-2.56,12.56-4.82,16.72-10.72,1.63-2.31,4.02-4.44,7.17-4.91,6.47-.98,10.98-4.91,15.15-9.43,4.67-5.07,9.38-10.11,14.16-15.08.83-.86,1.52-3.06,3.38-1.34,7.68,7.12,17.4,11.14,26.04,16.79,2.48,1.62,5.02,3.1,7.21,5.13,2.88,2.68,7.51,2.63,10.6.06,7.24-6.01,7.28-6.05,14.41.18,6.3,5.5,12.9,10.36,20.32,14.54,6.86,3.87,13.97,7.05,21.01,10.45.76.37,1.55.61,1.23,2.29-4.59-1.57-9.11-3.14-13.65-4.67-3.12-1.05-6.25-2.08-9.39-3.07-5.52-1.73-5.52-1.71-5.87,4.32-3.96-3.48-8.19-5.91-10.57-10.39-1.22-2.3-2.44-4.64-4.46-6.41-5.46-4.79-11.38-3.33-12.46,3.8-.9,5.94-5.46,7.42-9.65,10.01,1.12-2.39,2.43-4.7,3.28-7.18.73-2.13.9-4.49-2.66-4.03-1.83.24-2.05-.92-2.61-2.18-2.23-5.01-7.29-6.36-11.23-9.16-.31.28-.61.55-.92.83.92,1.74,1.83,3.47,2.89,5.48-3.83-.14-6.72-1.72-9.24-4.19-2.58-2.53-5.19-5.03-7.81-7.51-.57-.54-1.17-1.28-2.12-.93-1.03.37-.94,1.5-.67,2.06,2.96,6.2,2.01,12.61,1.3,19.04-.13,1.21.54,2.5.91,4.06-3.19-.83-3.76-2.81-3.44-5.35.53-4.19,0-8.02-2.94-11.45-1.79-2.09-.6-5.07-1.3-7.56-.28-.98.47-2.55-1.17-2.78-1.33-.19-2,1.03-2.48,2.04-2.24,4.67-5.46,9.01-5.88,14.35-.45,5.77-4.48,7.18-9.46,7.98,3.9-2.87,2.53-6.42,1.85-11.24-3.41,5.24-7.37,6.16-12.31,4.69-2.29-.68-3.97,1.25-5.17,3.1-6.29,9.66-17.02,9.65-26.36,12.68-.17-.54-.34-1.08-.51-1.62Z"/></svg>