<?xml version="1.0" encoding="UTF-8" standalone="no"?>
<!DOCTYPE svg PUBLIC "-//W3C//DTD SVG 1.1//EN"
 "http://www.w3.org/Graphics/SVG/1.1/DTD/svg11.dtd">
<!-- Generated by graphviz version 2.50.0 (20211209.1537)
 -->
<!-- Title: g Pages: 1 -->
<svg width="649pt" height="908pt"
 viewBox="0.00 0.00 648.86 908.00" xmlns="http://www.w3.org/2000/svg" xmlns:xlink="http://www.w3.org/1999/xlink">
<g id="graph0" class="graph" transform="scale(1 1) rotate(0) translate(4 904)">
<title>g</title>
<g id="node1" class="node">
<title></title>
<g id="a_node1"><a xlink:href=".">
<ellipse fill="white" stroke="#666666" cx="5.5" cy="-654" rx="5.5" ry="5.5"/>
</a>
</g>
</g>
<!-- assets -->
<g id="node2" class="node">
<title>assets</title>
<g id="a_node2"><a xlink:href="assets" xlink:title="Stylesheet, fonts, etc.\l">
<polygon fill="white" stroke="#b3b3b3" points="316,-888 204.79,-888 204.79,-852 316,-852 316,-888"/>
<text text-anchor="start" x="212.6" y="-867" font-family="Helvetica,sans-Serif" font-size="10.00">Stylesheet, fonts, etc.</text>
</a>
</g>
</g>
<!-- &#45;&gt;assets -->
<g id="edge1" class="edge">
<title>&#45;&gt;assets</title>
<path fill="none" stroke="#999999" d="M9,-658.45C16.39,-671.4 39.27,-709.8 65,-736 111.38,-783.24 176.62,-824.21 218.45,-848.02"/>
<polygon fill="#999999" stroke="#999999" points="225.22,-851.83 217.03,-851.09 221.95,-849.99 218.68,-848.15 218.68,-848.15 218.68,-848.15 221.95,-849.99 220.34,-845.21 225.22,-851.83 225.22,-851.83"/>
<text text-anchor="middle" x="91.96" y="-785" font-family="Helvetica,sans-Serif" font-size="10.00">assets</text>
</g>
<!-- contact.html -->
<g id="node3" class="node">
<title>contact.html</title>
<g id="a_node3"><a xlink:href="contact.html" xlink:title="Contact form\l">
<polygon fill="white" stroke="#b3b3b3" points="297.14,-780 223.66,-780 223.66,-744 297.14,-744 297.14,-780"/>
<text text-anchor="start" x="231.78" y="-759" font-family="Helvetica,sans-Serif" font-size="10.00">Contact form</text>
</a>
</g>
</g>
<!-- &#45;&gt;contact.html -->
<g id="edge2" class="edge">
<title>&#45;&gt;contact.html</title>
<path fill="none" stroke="#999999" d="M10.69,-656.32C20.21,-661.55 44.23,-674.53 65,-684 116.24,-707.36 176.63,-731 216.34,-746.03"/>
<polygon fill="#999999" stroke="#999999" points="223.51,-748.74 215.3,-749.25 220,-747.42 216.49,-746.09 216.49,-746.09 216.49,-746.09 220,-747.42 217.68,-742.93 223.51,-748.74 223.51,-748.74"/>
<text text-anchor="middle" x="91.96" y="-709" font-family="Helvetica,sans-Serif" font-size="10.00">contact.html</text>
</g>
<!-- gallery.html -->
<g id="node4" class="node">
<title>gallery.html</title>
<g id="a_node4"><a xlink:href="gallery.html" xlink:title="Photo gallery\l">
<polygon fill="white" stroke="#b3b3b3" points="297.77,-672 223.03,-672 223.03,-636 297.77,-636 297.77,-672"/>
<text text-anchor="start" x="231.21" y="-651" font-family="Helvetica,sans-Serif" font-size="10.00">Photo gallery</text>
</a>
</g>
</g>
<!-- &#45;&gt;gallery.html -->
<g id="edge3" class="edge">
<title>&#45;&gt;gallery.html</title>
<path fill="none" stroke="#999999" d="M11.33,-654C36.2,-654 151.2,-654 215.53,-654"/>
<polygon fill="#999999" stroke="#999999" points="223.12,-654 215.62,-657.38 219.37,-654 215.62,-654 215.62,-654 215.62,-654 219.37,-654 215.62,-650.63 223.12,-654 223.12,-654"/>
<text text-anchor="middle" x="91.96" y="-657" font-family="Helvetica,sans-Serif" font-size="10.00">gallery.html</text>
</g>
<!-- index.html -->
<g id="node5" class="node">
<title>index.html</title>
<g id="a_node5"><a xlink:href="index.html" xlink:title="Home page showing subset of treks\l">
<polygon fill="white" stroke="#b3b3b3" points="347.87,-564 172.92,-564 172.92,-528 347.87,-528 347.87,-564"/>
<text text-anchor="start" x="180.91" y="-543" font-family="Helvetica,sans-Serif" font-size="10.00">Home page showing subset of treks</text>
</a>
</g>
</g>
<!-- &#45;&gt;index.html -->
<g id="edge4" class="edge">
<title>&#45;&gt;index.html</title>
<path fill="none" stroke="#999999" d="M10.69,-651.68C20.21,-646.45 44.23,-633.47 65,-624 111.1,-602.98 164.6,-581.74 203.8,-566.74"/>
<polygon fill="#999999" stroke="#999999" points="210.94,-564.01 205.14,-569.84 207.44,-565.35 203.94,-566.69 203.94,-566.69 203.94,-566.69 207.44,-565.35 202.73,-563.53 210.94,-564.01 210.94,-564.01"/>
<text text-anchor="middle" x="91.96" y="-627" font-family="Helvetica,sans-Serif" font-size="10.00">index.html</text>
</g>
<!-- treks -->
<g id="node6" class="node">
<title>treks</title>
<g id="a_node6"><a xlink:href="treks">
<ellipse fill="white" stroke="#666666" cx="260.4" cy="-450" rx="5.5" ry="5.5"/>
</a>
</g>
</g>
<!-- &#45;&gt;treks -->
<g id="edge5" class="edge">
<title>&#45;&gt;treks</title>
<path fill="none" stroke="#999999" d="M8.97,-649.48C16.31,-636.34 39.06,-597.41 65,-571 106.65,-528.59 121.99,-522.66 172.91,-492 198.72,-476.46 231.12,-461.96 247.99,-454.75"/>
<polygon fill="#999999" stroke="#999999" points="254.93,-451.83 249.33,-457.85 251.48,-453.29 248.02,-454.74 248.02,-454.74 248.02,-454.74 251.48,-453.29 246.71,-451.63 254.93,-451.83 254.93,-451.83"/>
<text text-anchor="middle" x="91.96" y="-574" font-family="Helvetica,sans-Serif" font-size="10.00">treks</text>
</g>
<!-- treks/index.html -->
<g id="node7" class="node">
<title>treks/index.html</title>
<g id="a_node7"><a xlink:href="treks/index.html" xlink:title="Trek area home page\l">
<polygon fill="white" stroke="#b3b3b3" points="640.67,-900 529.44,-900 529.44,-864 640.67,-864 640.67,-900"/>
<text text-anchor="start" x="537.25" y="-879" font-family="Helvetica,sans-Serif" font-size="10.00">Trek area home page</text>
</a>
</g>
</g>
<!-- treks&#45;&gt;treks/index.html -->
<g id="edge6" class="edge">
<title>treks&#45;&gt;treks/index.html</title>
<path fill="none" stroke="#999999" d="M266.24,-450.84C281.02,-453.66 325.91,-464.26 347.89,-492 415.78,-577.7 344.59,-638.88 401.89,-732 437.14,-789.3 502.13,-834.81 544.19,-860.08"/>
<polygon fill="#999999" stroke="#999999" points="550.74,-863.96 542.57,-863.04 547.51,-862.04 544.29,-860.13 544.29,-860.13 544.29,-860.13 547.51,-862.04 546.01,-857.23 550.74,-863.96 550.74,-863.96"/>
<text text-anchor="middle" x="438.57" y="-814" font-family="Helvetica,sans-Serif" font-size="10.00">index.html</text>
</g>
<!-- treks/banff.html -->
<g id="node8" class="node">
<title>treks/banff.html</title>
<g id="a_node8"><a xlink:href="treks/banff.html" xlink:title="Trek description\l">
<polygon fill="white" stroke="#b3b3b3" points="628.69,-792 541.42,-792 541.42,-756 628.69,-756 628.69,-792"/>
<text text-anchor="start" x="549.49" y="-771" font-family="Helvetica,sans-Serif" font-size="10.00">Trek description</text>
</a>
</g>
</g>
<!-- treks&#45;&gt;treks/banff.html -->
<g id="edge7" class="edge">
<title>treks&#45;&gt;treks/banff.html</title>
<path fill="none" stroke="#999999" d="M266.06,-450.99C280.33,-454.25 323.9,-465.98 347.89,-492 392.8,-540.74 362.42,-577.76 401.89,-631 440.9,-683.63 504.04,-727.19 544.8,-751.91"/>
<polygon fill="#999999" stroke="#999999" points="551.39,-755.86 543.22,-754.9 548.17,-753.93 544.96,-752 544.96,-752 544.96,-752 548.17,-753.93 546.69,-749.11 551.39,-755.86 551.39,-755.86"/>
<text text-anchor="middle" x="438.57" y="-705" font-family="Helvetica,sans-Serif" font-size="10.00">banff.html</text>
</g>
<!-- treks/hangen.html -->
<g id="node9" class="node">
<title>treks/hangen.html</title>
<g id="a_node9"><a xlink:href="treks/hangen.html" xlink:title="Trek description\l">
<polygon fill="white" stroke="#b3b3b3" points="628.69,-684 541.42,-684 541.42,-648 628.69,-648 628.69,-684"/>
<text text-anchor="start" x="549.49" y="-663" font-family="Helvetica,sans-Serif" font-size="10.00">Trek description</text>
</a>
</g>
</g>
<!-- treks&#45;&gt;treks/hangen.html -->
<g id="edge8" class="edge">
<title>treks&#45;&gt;treks/hangen.html</title>
<path fill="none" stroke="#999999" d="M266.03,-451.57C279.53,-456.29 319.61,-471.28 347.89,-492 376.04,-512.62 375.01,-526.74 401.89,-549 447.4,-586.69 505.71,-622.21 543.94,-644.02"/>
<polygon fill="#999999" stroke="#999999" points="550.84,-647.93 542.65,-647.16 547.58,-646.08 544.32,-644.23 544.32,-644.23 544.32,-644.23 547.58,-646.08 545.98,-641.29 550.84,-647.93 550.84,-647.93"/>
<text text-anchor="middle" x="438.57" y="-604" font-family="Helvetica,sans-Serif" font-size="10.00">hangen.html</text>
</g>
<!-- treks/mathikettan.html -->
<g id="node10" class="node">
<title>treks/mathikettan.html</title>
<g id="a_node10"><a xlink:href="treks/mathikettan.html" xlink:title="Trek description\l">
<polygon fill="white" stroke="#b3b3b3" points="628.69,-576 541.42,-576 541.42,-540 628.69,-540 628.69,-576"/>
<text text-anchor="start" x="549.49" y="-555" font-family="Helvetica,sans-Serif" font-size="10.00">Trek description</text>
</a>
</g>
</g>
<!-- treks&#45;&gt;treks/mathikettan.html -->
<g id="edge9" class="edge">
<title>treks&#45;&gt;treks/mathikettan.html</title>
<path fill="none" stroke="#999999" d="M265.96,-451.53C294.7,-461.15 452.12,-513.84 534.2,-541.31"/>
<polygon fill="#999999" stroke="#999999" points="541.42,-543.73 533.24,-544.55 537.87,-542.54 534.31,-541.35 534.31,-541.35 534.31,-541.35 537.87,-542.54 535.38,-538.15 541.42,-543.73 541.42,-543.73"/>
<text text-anchor="middle" x="438.57" y="-522" font-family="Helvetica,sans-Serif" font-size="10.00">mathikettan.html</text>
</g>
<!-- treks/mustang.html -->
<g id="node11" class="node">
<title>treks/mustang.html</title>
<g id="a_node11"><a xlink:href="treks/mustang.html" xlink:title="Trek description\l">
<polygon fill="white" stroke="#b3b3b3" points="628.69,-468 541.42,-468 541.42,-432 628.69,-432 628.69,-468"/>
<text text-anchor="start" x="549.49" y="-447" font-family="Helvetica,sans-Serif" font-size="10.00">Trek description</text>
</a>
</g>
</g>
<!-- treks&#45;&gt;treks/mustang.html -->
<g id="edge10" class="edge">
<title>treks&#45;&gt;treks/mustang.html</title>
<path fill="none" stroke="#999999" d="M265.96,-450C294.64,-450 451.49,-450 533.71,-450"/>
<polygon fill="#999999" stroke="#999999" points="541.42,-450 533.92,-453.38 537.67,-450 533.92,-450 533.92,-450 533.92,-450 537.67,-450 533.92,-446.63 541.42,-450 541.42,-450"/>
<text text-anchor="middle" x="438.57" y="-453" font-family="Helvetica,sans-Serif" font-size="10.00">mustang.html</text>
</g>
<!-- treks/nunavut.html -->
<g id="node12" class="node">
<title>treks/nunavut.html</title>
<g id="a_node12"><a xlink:href="treks/nunavut.html" xlink:title="Trek description\l">
<polygon fill="white" stroke="#b3b3b3" points="628.69,-360 541.42,-360 541.42,-324 628.69,-324 628.69,-360"/>
<text text-anchor="start" x="549.49" y="-339" font-family="Helvetica,sans-Serif" font-size="10.00">Trek description</text>
</a>
</g>
</g>
<!-- treks&#45;&gt;treks/nunavut.html -->
<g id="edge11" class="edge">
<title>treks&#45;&gt;treks/nunavut.html</title>
<path fill="none" stroke="#999999" d="M265.96,-448.47C294.7,-438.85 452.12,-386.16 534.2,-358.69"/>
<polygon fill="#999999" stroke="#999999" points="541.42,-356.27 535.38,-361.85 537.87,-357.46 534.31,-358.65 534.31,-358.65 534.31,-358.65 537.87,-357.46 533.24,-355.45 541.42,-356.27 541.42,-356.27"/>
<text text-anchor="middle" x="438.57" y="-405" font-family="Helvetica,sans-Serif" font-size="10.00">nunavut.html</text>
</g>
<!-- treks/patagonia.html -->
<g id="node13" class="node">
<title>treks/patagonia.html</title>
<g id="a_node13"><a xlink:href="treks/patagonia.html" xlink:title="Trek description\l">
<polygon fill="white" stroke="#b3b3b3" points="628.69,-252 541.42,-252 541.42,-216 628.69,-216 628.69,-252"/>
<text text-anchor="start" x="549.49" y="-231" font-family="Helvetica,sans-Serif" font-size="10.00">Trek description</text>
</a>
</g>
</g>
<!-- treks&#45;&gt;treks/patagonia.html -->
<g id="edge12" class="edge">
<title>treks&#45;&gt;treks/patagonia.html</title>
<path fill="none" stroke="#999999" d="M265.26,-447.14C281.6,-435.06 346.76,-387.13 401.89,-350 451.95,-316.28 511.08,-279.1 548.08,-256.14"/>
<polygon fill="#999999" stroke="#999999" points="554.73,-252.03 550.13,-258.84 551.54,-254 548.35,-255.98 548.35,-255.98 548.35,-255.98 551.54,-254 546.58,-253.11 554.73,-252.03 554.73,-252.03"/>
<text text-anchor="middle" x="438.57" y="-353" font-family="Helvetica,sans-Serif" font-size="10.00">patagonia.html</text>
</g>
<!-- treks/torres.html -->
<g id="node14" class="node">
<title>treks/torres.html</title>
<g id="a_node14"><a xlink:href="treks/torres.html" xlink:title="Trek description\l">
<polygon fill="white" stroke="#b3b3b3" points="628.69,-144 541.42,-144 541.42,-108 628.69,-108 628.69,-144"/>
<text text-anchor="start" x="549.49" y="-123" font-family="Helvetica,sans-Serif" font-size="10.00">Trek description</text>
</a>
</g>
</g>
<!-- treks&#45;&gt;treks/torres.html -->
<g id="edge13" class="edge">
<title>treks&#45;&gt;treks/torres.html</title>
<path fill="none" stroke="#999999" d="M264.17,-445.9C277.82,-425.87 339.68,-336.75 401.89,-274 450.43,-225.03 514.39,-176.14 552.18,-148.61"/>
<polygon fill="#999999" stroke="#999999" points="558.46,-144.06 554.37,-151.19 555.43,-146.26 552.39,-148.46 552.39,-148.46 552.39,-148.46 555.43,-146.26 550.41,-145.73 558.46,-144.06 558.46,-144.06"/>
<text text-anchor="middle" x="438.57" y="-277" font-family="Helvetica,sans-Serif" font-size="10.00">torres.html</text>
</g>
<!-- treks/wadirum.html -->
<g id="node15" class="node">
<title>treks/wadirum.html</title>
<g id="a_node15"><a xlink:href="treks/wadirum.html" xlink:title="Trek description\l">
<polygon fill="white" stroke="#b3b3b3" points="628.69,-36 541.42,-36 541.42,0 628.69,0 628.69,-36"/>
<text text-anchor="start" x="549.49" y="-15" font-family="Helvetica,sans-Serif" font-size="10.00">Trek description</text>
</a>
</g>
</g>
<!-- treks&#45;&gt;treks/wadirum.html -->
<g id="edge14" class="edge">
<title>treks&#45;&gt;treks/wadirum.html</title>
<path fill="none" stroke="#999999" d="M263.13,-445.16C273.25,-417.27 326.9,-275.09 401.89,-179 446.19,-122.22 512.36,-69.61 551.57,-40.83"/>
<polygon fill="#999999" stroke="#999999" points="558.1,-36.08 554.02,-43.22 555.06,-38.29 552.03,-40.49 552.03,-40.49 552.03,-40.49 555.06,-38.29 550.05,-37.77 558.1,-36.08 558.1,-36.08"/>
<text text-anchor="middle" x="438.57" y="-182" font-family="Helvetica,sans-Serif" font-size="10.00">wadirum.html</text>
</g>
</g>
</svg>
